<?xml version="1.0" encoding="utf-8"?>
<!-- Generator: Adobe Illustrator 21.0.2, SVG Export Plug-In . SVG Version: 6.00 Build 0)  -->
<svg version="1.1" id="Layer_1" xmlns="http://www.w3.org/2000/svg" xmlns:xlink="http://www.w3.org/1999/xlink" x="0px" y="0px"
	 viewBox="0 0 100 100" style="enable-background:new 0 0 100 100;" xml:space="preserve">
<path d="M50,5C25.2,5,5,25.2,5,50c0,24.8,20.2,45,45,45c24.8,0,45-20.2,45-45C95,25.2,74.8,5,50,5z M50,91C27.4,91,9,72.6,9,50
	S27.4,9,50,9s41,18.4,41,41S72.6,91,50,91z M73.4,41.6c0.8,0.8,0.8,2,0,2.8l-22,22C51,66.8,50.5,67,50,67s-1-0.2-1.4-0.6l-22-22
	c-0.8-0.8-0.8-2,0-2.8c0.8-0.8,2-0.8,2.8,0L50,62.2l20.6-20.6C71.4,40.8,72.6,40.8,73.4,41.6z"/>
</svg>
